# xmcd
#
# Track frame offsets: 
#        150
#        18794
#        39813
#        56747
#        79297
#        102473
#        125649
#        143958
#        147924
#        154119
#        170398
#        181982
#        210045
#        241053
#
# Disc length: 3470 seconds
#
# Revision: 0
# Processed by: cddbd v1.5.2PL0 Copyright (c) Steve Scherf et al.
# Submitted via: ExactAudioCopyFreeDBPlugin 1.0
#
DISCID=b30d8c0e
DTITLE=The Moody Blues - Timeless Flight [CD6]
DYEAR=2013
DGENRE=Progressive Rock
TTITLE0=Gypsy (Live at The Royal Albert Hall, 1969)
TTITLE1=The Sunset (Live at The Royal Albert Hall, 1969)
TTITLE2=Dr. Livingston I Presume (Live at The Royal Albert Hall, 1969)
TTITLE3=Never Comes the Day (Live at The Royal Albert Hall, 1969)
TTITLE4=Peak Hour (Live at The Royal Albert Hall, 1969)
TTITLE5=Tuesday Afternoon (Live at The Royal Albert Hall, 1969)
TTITLE6=Are You Sitting Comfortably? (Live at The Royal Albert Hall, 1
TTITLE6=969)
TTITLE7=The Dream (Live at The Royal Albert Hall, 1969)
TTITLE8=Have You Heard - Part One (Live at The Royal Albert Hall, 1969
TTITLE8=)
TTITLE9=The Voyage (Live at The Royal Albert Hall, 1969)
TTITLE10=Have You Heard - Part Two (Live at The Royal Albert Hall, 196
TTITLE10=9)
TTITLE11=Nights in White Satin (Live at The Royal Albert Hall, 1969)
TTITLE12=Legend of a Mind (Live at The Royal Albert Hall, 1969)
TTITLE13=Ride My See Saw (Live at The Royal Albert Hall, 1969)
EXTD=
EXTT0=
EXTT1=
EXTT2=
EXTT3=
EXTT4=
EXTT5=
EXTT6=
EXTT7=
EXTT8=
EXTT9=
EXTT10=
EXTT11=
EXTT12=
EXTT13=
PLAYORDER=
